<?xml version="1.0" encoding="utf-8"?>
<!-- Generator: Adobe Illustrator 22.1.0, SVG Export Plug-In . SVG Version: 6.00 Build 0)  -->
<svg version="1.1" id="Layer_1" xmlns="http://www.w3.org/2000/svg" xmlns:xlink="http://www.w3.org/1999/xlink" x="0px" y="0px"
	 viewBox="0 0 375 48.4" style="enable-background:new 0 0 375 48.4;" xml:space="preserve">
<style type="text/css">
	.st0{fill:#BE0921;}
</style>
<path id="XMLID_256_" class="st0" d="M44.5,1.6l-17,22.7l17,22.8H0V1.6H44.5z"/>
<path id="XMLID_254_" class="st0" d="M96.7,24.2c0,13.4-10.8,24.2-24.2,24.2c-13.4,0-24.2-10.8-24.2-24.2S59.1,0,72.5,0
	C85.8,0,96.7,10.8,96.7,24.2z"/>
<path id="XMLID_252_" class="st0" d="M190.5,46.7L163.3,1.5c50.1,0,7.5,0,57.4,0l-28.5,45.2H190.5z"/>
<path id="XMLID_250_" class="st0" d="M266.2,1.5v14h-9.4v4.6h5.4v8.2h-5.4v4.6h9.4v14h-37.6V1.5H266.2z"/>
<path id="XMLID_247_" class="st0" d="M319.1,20c0,5.9-2.7,11.1-7.1,14.5l6.7,12.5c-13.3,0-26.6,0-39.9,0c0-50.3,0-10.4,0-45.5h21.8
	C310.8,1.6,319.1,9.8,319.1,20z"/>
<path id="XMLID_98_" class="st0" d="M363.5,47h-22.7V24.3h-12.1V1.6H375v22.8h-11.5V47z"/>
<path id="XMLID_88_" class="st0" d="M152.8,46.3V2.2h-16.2v8.9c0,0-31.6-9.2-30.7-8.9v44.1h16.9H152.8z"/>
</svg>
